<?xml version="1.0" standalone="no"?>
<!DOCTYPE svg PUBLIC "-//W3C//DTD SVG 20010904//EN"
 "http://www.w3.org/TR/2001/REC-SVG-20010904/DTD/svg10.dtd">
<svg version="1.0" xmlns="http://www.w3.org/2000/svg"
 width="700.000000pt" height="700.000000pt" viewBox="0 0 700.000000 700.000000"
 preserveAspectRatio="xMidYMid meet">
<metadata>
Created by potrace 1.14, written by Peter Selinger 2001-2017
</metadata>
<g transform="translate(0.000000,700.000000) scale(0.100000,-0.100000)"
fill="#000000" stroke="none">
<path d="M1633 5442 c-30 -4 -73 -47 -74 -74 -2 -31 -4 -16 31 -253 17 -115
36 -239 41 -275 5 -36 14 -90 19 -120 5 -30 12 -75 15 -100 3 -25 10 -71 16
-103 5 -33 12 -73 14 -90 2 -18 6 -48 9 -67 3 -19 17 -109 31 -200 13 -91 27
-176 29 -190 3 -14 10 -61 16 -105 6 -44 13 -91 15 -105 3 -14 7 -43 10 -65 3
-22 10 -65 15 -95 6 -30 12 -71 14 -90 3 -19 10 -66 16 -105 6 -38 13 -88 16
-110 3 -22 7 -50 9 -61 5 -21 41 -259 51 -333 2 -19 7 -48 10 -65 3 -17 7 -42
9 -56 3 -26 53 -357 60 -400 4 -25 29 -189 40 -265 3 -22 10 -65 15 -95 11
-62 16 -93 24 -165 4 -27 11 -72 16 -100 5 -27 12 -70 15 -95 3 -25 10 -70 15
-100 5 -30 12 -75 15 -100 6 -42 10 -67 20 -132 10 -60 14 -85 20 -128 3 -25
10 -70 15 -100 5 -30 12 -75 15 -100 7 -52 15 -105 20 -129 3 -19 12 -80 20
-136 3 -22 10 -65 15 -95 5 -30 14 -86 19 -124 8 -53 16 -75 37 -97 l28 -29
1183 0 c1293 0 1228 -3 1251 57 6 15 16 69 22 118 15 128 22 178 25 195 1 8 6
40 10 70 7 58 10 81 19 145 3 22 8 58 11 80 2 22 11 92 20 155 15 116 21 162
31 235 2 22 7 51 9 65 4 25 32 232 40 300 2 19 7 54 10 76 3 23 8 57 10 75 20
151 77 580 80 604 3 17 7 55 10 85 4 30 8 62 10 70 2 8 7 40 10 70 3 30 8 66
10 80 3 14 7 48 10 75 3 28 8 61 10 75 6 43 14 103 20 145 4 33 35 263 50 370
2 17 9 68 15 115 18 143 21 164 25 190 2 14 6 45 10 70 3 25 10 77 15 115 13
96 19 142 25 195 3 25 7 54 9 65 2 12 7 48 11 80 3 33 10 85 15 115 5 30 12
84 15 120 4 36 8 67 10 70 1 3 6 32 9 65 4 33 9 71 11 85 10 68 15 109 21 155
3 28 8 58 10 68 2 10 6 46 9 80 4 34 8 64 10 67 4 6 18 149 17 172 -1 28 -32
66 -60 74 -25 7 -3700 13 -3749 6z m3602 -212 c-5 -27 -34 -241 -51 -375 -2
-22 -7 -51 -9 -65 -3 -14 -7 -45 -10 -70 -3 -25 -8 -65 -11 -90 -2 -25 -7 -54
-9 -65 -2 -11 -7 -47 -11 -79 -3 -33 -8 -67 -9 -75 -2 -9 -4 -21 -4 -26 -1
-10 -3220 -15 -3222 -5 0 3 -2 12 -4 20 -1 8 -6 35 -9 60 -4 25 -9 56 -11 70
-3 14 -7 45 -10 70 -3 25 -7 56 -10 70 -3 14 -7 39 -9 55 -3 17 -7 44 -10 60
-2 17 -10 66 -16 110 -6 44 -13 91 -16 105 -2 14 -7 43 -10 65 -3 22 -7 51
-10 65 -2 14 -7 46 -10 73 l-7 47 1736 0 1736 0 -4 -20z"/>
</g>
</svg>
